<svg width="30" height="30" viewBox="0 0 30 30" fill="none" xmlns="http://www.w3.org/2000/svg">
<g clip-path="url(#clip0_94_13)">
<path d="M1.07129 26.7857V3.21427C1.07129 2.64595 1.29705 2.1009 1.69892 1.69904C2.10078 1.29718 2.64583 1.07141 3.21415 1.07141H26.7856C27.3539 1.07141 27.8989 1.29718 28.3008 1.69904C28.7027 2.1009 28.9284 2.64595 28.9284 3.21427V26.7857C28.9284 27.354 28.7027 27.8991 28.3008 28.3009C27.8989 28.7028 27.3539 28.9286 26.7856 28.9286H20.357V18.7714H21.8784C22.2251 18.7714 22.5576 18.6337 22.8027 18.3886C23.0479 18.1434 23.1856 17.8109 23.1856 17.4643V15.8143C23.185 15.4678 23.0471 15.1356 22.8021 14.8906C22.5571 14.6456 22.2249 14.5077 21.8784 14.5071H20.4427V12.4928C20.4427 10.6928 21.257 10.6928 22.0713 10.6928H23.1213C23.2937 10.6999 23.4657 10.6691 23.6249 10.6024C23.7841 10.5358 23.9267 10.435 24.0427 10.3071C24.1672 10.1886 24.2658 10.0455 24.3322 9.88687C24.3986 9.72826 24.4314 9.55761 24.4284 9.3857V7.79998C24.4347 7.62535 24.4064 7.4512 24.3451 7.28756C24.2837 7.12393 24.1906 6.97405 24.0711 6.84657C23.9516 6.71908 23.808 6.61651 23.6487 6.54477C23.4894 6.47303 23.3174 6.43353 23.1427 6.42855H20.6784C19.9594 6.40152 19.243 6.5309 18.5789 6.80775C17.9147 7.0846 17.3186 7.50232 16.8316 8.03206C16.3447 8.5618 15.9785 9.19094 15.7585 9.87601C15.5384 10.5611 15.4697 11.2858 15.557 12V14.5071H14.1856C14.0121 14.5043 13.8398 14.536 13.6788 14.6004C13.5177 14.6648 13.3711 14.7607 13.2474 14.8823C13.1237 15.004 13.0255 15.149 12.9585 15.309C12.8915 15.469 12.857 15.6408 12.857 15.8143V17.4643C12.857 17.6377 12.8915 17.8095 12.9585 17.9695C13.0255 18.1295 13.1237 18.2746 13.2474 18.3962C13.3711 18.5179 13.5177 18.6137 13.6788 18.6781C13.8398 18.7425 14.0121 18.7743 14.1856 18.7714H15.557V28.9286H3.21415C2.64583 28.9286 2.10078 28.7028 1.69892 28.3009C1.29705 27.8991 1.07129 27.354 1.07129 26.7857Z" stroke="white" stroke-width="2.14286" stroke-linecap="round" stroke-linejoin="round"/>
</g>
<defs>
<clipPath id="clip0_94_13">
<rect width="30" height="30" fill="white"/>
</clipPath>
</defs>
</svg>
