<svg width="30" height="30" viewBox="0 0 30 30" fill="none" xmlns="http://www.w3.org/2000/svg">
<g clip-path="url(#clip0_96_9)">
<path d="M8.78792 0.104951C7.19167 0.179951 6.10167 0.434951 5.15042 0.808701C4.15007 1.18764 3.24412 1.77966 2.49542 2.5437C1.73454 3.29447 1.14595 4.20166 0.770423 5.20245C0.401673 6.15745 0.150423 7.24995 0.080423 8.84495C0.010423 10.44 -0.00582698 10.955 0.00167302 15.0287C0.00917302 19.1025 0.027923 19.6125 0.105423 21.2125C0.181673 22.8087 0.435423 23.8987 0.809173 24.8512C1.19417 25.8375 1.70917 26.6725 2.54417 27.505C3.29567 28.2661 4.20374 28.8547 5.20542 29.23C6.15917 29.5987 7.25042 29.85 8.84667 29.92C10.4442 29.99 10.9579 30.0062 15.0304 29.9987C19.1029 29.9912 19.6154 29.9725 21.2142 29.8962C22.8142 29.8212 23.8979 29.565 24.8517 29.1925C25.8516 28.8134 26.7571 28.2213 27.5054 27.4575C28.2666 26.706 28.8552 25.7979 29.2304 24.7962C29.5992 23.8425 29.8504 22.7512 29.9192 21.1562C29.9892 19.5562 30.0067 19.0437 29.9979 14.9712C29.9904 10.8987 29.9729 10.3875 29.8967 8.78745C29.8217 7.18745 29.5667 6.10245 29.1917 5.1487C28.8129 4.14891 28.2214 3.24341 27.4579 2.49495C26.7068 1.73392 25.7992 1.14532 24.7979 0.769951C23.8429 0.402451 22.7529 0.149951 21.1554 0.0824509C19.5592 0.0112009 19.0454 -0.00754911 14.9717 -4.91083e-05C10.8979 0.00745089 10.3879 0.0262009 8.78792 0.104951ZM8.96292 27.2212C7.50042 27.1587 6.70667 26.915 6.17792 26.7112C5.52537 26.4728 4.93492 26.0904 4.45042 25.5925C3.95086 25.11 3.56634 24.5213 3.32542 23.87C3.11917 23.3412 2.87167 22.5475 2.80417 21.085C2.72917 19.505 2.71417 19.03 2.70417 15.025C2.69667 11.02 2.71167 10.5462 2.78042 8.96495C2.84292 7.5037 3.08792 6.7087 3.29042 6.17995C3.56042 5.4787 3.88667 4.97995 4.40917 4.45245C4.89195 3.95273 5.48113 3.56821 6.13292 3.32745C6.66167 3.1212 7.45417 2.8762 8.91667 2.8062C10.4979 2.7312 10.9717 2.7162 14.9767 2.7062C18.9804 2.6987 19.4554 2.7137 21.0392 2.7837C22.4992 2.8462 23.2942 3.0887 23.8229 3.2937C24.5229 3.5637 25.0229 3.88745 25.5504 4.41245C26.0779 4.93745 26.4017 5.4337 26.6754 6.13495C26.8817 6.66245 27.1279 7.45495 27.1967 8.9187C27.2717 10.5 27.2892 10.975 27.2967 14.9787C27.3029 18.9825 27.2892 19.4575 27.2204 21.0387C27.1567 22.5012 26.9142 23.295 26.7104 23.8262C26.4404 24.5262 26.1142 25.0262 25.5904 25.5512C25.108 26.0508 24.5193 26.4353 23.8679 26.6762C23.3404 26.8825 22.5454 27.1287 21.0854 27.1987C19.5029 27.2737 19.0292 27.2887 15.0229 27.2975C11.0167 27.3062 10.5454 27.2887 8.96292 27.2212ZM21.1917 6.98245C21.1922 7.33851 21.2983 7.68642 21.4965 7.98218C21.6948 8.27794 21.9763 8.50826 22.3054 8.64401C22.6346 8.77975 22.9966 8.81482 23.3457 8.74478C23.6948 8.67474 24.0153 8.50274 24.2667 8.25053C24.518 7.99832 24.6889 7.67723 24.7577 7.32789C24.8265 6.97855 24.7902 6.61664 24.6533 6.28794C24.5164 5.95925 24.2852 5.67853 23.9887 5.48131C23.6923 5.28408 23.344 5.17921 22.9879 5.17995C22.5107 5.18094 22.0535 5.37137 21.7167 5.70937C21.3798 6.04737 21.191 6.50528 21.1917 6.98245ZM7.29917 15.015C7.30315 17.0576 8.11841 19.015 9.56561 20.4566C11.0128 21.8982 12.9734 22.7058 15.016 22.7018C17.0587 22.6978 19.0161 21.8826 20.4577 20.4354C21.8993 18.9882 22.7069 17.0276 22.7029 14.985C22.6735 12.9591 21.847 11.0265 20.4027 9.60572C18.9583 8.18496 17.0123 7.39049 14.9862 7.39443C12.9602 7.39838 11.0173 8.20042 9.57848 9.6268C8.13964 11.0532 7.32073 12.989 7.29917 15.015ZM10.0004 15.01C9.99845 14.021 10.2898 13.0538 10.8375 12.2304C11.3853 11.4071 12.1649 10.7647 13.0778 10.3844C13.9906 10.0041 14.9958 9.90311 15.9661 10.0941C16.9363 10.2851 17.8282 10.7595 18.5289 11.4574C19.2295 12.1552 19.7075 13.0452 19.9024 14.0147C20.0972 14.9842 20.0002 15.9897 19.6236 16.9041C19.247 17.8185 18.6077 18.6007 17.7866 19.1517C16.9654 19.7028 15.9993 19.998 15.0104 20C14.3538 20.0013 13.7034 19.8732 13.0962 19.6232C12.4891 19.3731 11.9372 19.0059 11.472 18.5426C11.0067 18.0792 10.6373 17.5287 10.3848 16.9226C10.1324 16.3165 10.0017 15.6666 10.0004 15.01Z" fill="white"/>
</g>
<defs>
<clipPath id="clip0_96_9">
<rect width="30" height="30" fill="white"/>
</clipPath>
</defs>
</svg>
