<svg width="30" height="30" viewBox="0 0 30 30" fill="none" xmlns="http://www.w3.org/2000/svg">
<path d="M5.00098 3.75H25.001C25.3325 3.75 25.6504 3.8817 25.8849 4.11612C26.1193 4.35054 26.251 4.66848 26.251 5V25C26.251 25.3315 26.1193 25.6495 25.8849 25.8839C25.6504 26.1183 25.3325 26.25 25.001 26.25H5.00098C4.66946 26.25 4.35151 26.1183 4.11709 25.8839C3.88267 25.6495 3.75098 25.3315 3.75098 25V5C3.75098 4.66848 3.88267 4.35054 4.11709 4.11612C4.35151 3.8817 4.66946 3.75 5.00098 3.75ZM6.25098 6.25V23.75H23.751V6.25H6.25098ZM9.37598 11.25C8.8787 11.25 8.40178 11.0525 8.05015 10.7008C7.69852 10.3492 7.50098 9.87228 7.50098 9.375C7.50098 8.87772 7.69852 8.40081 8.05015 8.04917C8.40178 7.69754 8.8787 7.5 9.37598 7.5C9.87326 7.5 10.3502 7.69754 10.7018 8.04917C11.0534 8.40081 11.251 8.87772 11.251 9.375C11.251 9.87228 11.0534 10.3492 10.7018 10.7008C10.3502 11.0525 9.87326 11.25 9.37598 11.25ZM8.12598 12.5H10.626V21.875H8.12598V12.5ZM15.001 13.0375C15.731 12.3313 16.5835 11.875 17.501 11.875C20.0897 11.875 21.876 13.9737 21.876 16.5625V21.875H19.376V16.5625C19.376 15.9823 19.1455 15.4259 18.7353 15.0157C18.325 14.6055 17.7686 14.375 17.1885 14.375C16.6083 14.375 16.0519 14.6055 15.6417 15.0157C15.2314 15.4259 15.001 15.9823 15.001 16.5625V21.875H12.501V12.5H15.001V13.0375Z" fill="white"/>
</svg>
